<svg class="ekit-menu-icon ekit-svg-icon icon-menu-button-of-three-horizontal-lines" viewBox="0 0 32 32" xmlns="http://www.w3.org/2000/svg"><path d="M28.903 1.548h-25.806c-1.703 0-3.097 1.394-3.097 3.097s1.394 3.097 3.097 3.097h25.806c1.703 0 3.097-1.394 3.097-3.097s-1.394-3.097-3.097-3.097z"></path><path d="M28.903 12.903h-25.806c-1.703 0-3.097 1.394-3.097 3.097s1.394 3.097 3.097 3.097h25.806c1.703 0 3.097-1.394 3.097-3.097s-1.394-3.097-3.097-3.097z"></path><path d="M28.903 24.258h-25.806c-1.703 0-3.097 1.394-3.097 3.097s1.394 3.097 3.097 3.097h25.806c1.703 0 3.097-1.394 3.097-3.097s-1.394-3.097-3.097-3.097z"></path></svg>